# xmcd
#
# Track frame offsets: 
#        150
#        14772
#        28297
#        39832
#        52172
#        65325
#        80160
#        93535
#        104700
#        117795
#        130952
#        145597
#        156560
#        171697
#        185872
#        198585
#        212897
#        226420
#        238922
#        257112
#        271890
#        284377
#        297835
#        310992
#
# Disc length: 4311 seconds
#
# Revision: 0
# Processed by: cddbd v1.5.2PL0 Copyright (c) Steve Scherf et al.
# Submitted via: ExactAudioCopy v0.95b4
#
DISCID=8710d518
DTITLE=Muddy Waters - Anthology Disc II
DYEAR=1947
DGENRE=Blues
TTITLE0=01 My Eyes (Keep Me In Trouble)
TTITLE1=02 Mannish Boy
TTITLE2=03 Sugar Sweet
TTITLE3=04 Trouble No More 
TTITLE4=05 Forty Days And Forty Nights
TTITLE5=06 Just To Be With You
TTITLE6=07 Don't Go No Farther 
TTITLE7=08 Diamonds At Your Feet
TTITLE8=09 I Love The Life I Live (I Live The Life I Love)
TTITLE9=10 Got My Mojo Working
TTITLE10=11 Rock Me
TTITLE11=12 Look What You've Done
TTITLE12=13 She's Nineteen Years Old
TTITLE13=14 Close To You
TTITLE14=15 Walking Thru The Park
TTITLE15=16 Take The Bitter With The Sweet
TTITLE16=17 I Feel So Good (Live)
TTITLE17=18 You Shook Me
TTITLE18=19 My Home Is In The Delta
TTITLE19=20 Good Morning Little School Girl
TTITLE20=21 The Same Thing
TTITLE21=22 You Can't Lose What You Ain't Never Had
TTITLE22=23 All Aboard (Fathers and Sons)
TTITLE23=24 Can't Get No Grindin'
EXTD=
EXTT0=
EXTT1=
EXTT2=
EXTT3=
EXTT4=
EXTT5=
EXTT6=
EXTT7=
EXTT8=
EXTT9=
EXTT10=
EXTT11=
EXTT12=
EXTT13=
EXTT14=
EXTT15=
EXTT16=
EXTT17=
EXTT18=
EXTT19=
EXTT20=
EXTT21=
EXTT22=
EXTT23=
PLAYORDER=
